<svg id="Layer_1" enable-background="new 0 0 24 24" viewBox="0 0 24 24" xmlns="http://www.w3.org/2000/svg"><path d="m12 1c-6.1 0-11 4.9-11 11s4.9 11 11 11 11-4.9 11-11-4.9-11-11-11zm-7.2 7.3c.7-1.3 1.9-2 2.8-1.6.9.5 1.1 1.9.4 3.3-.7 1.3-1.9 2-2.8 1.6-.9-.5-1.1-1.9-.4-3.3zm3.3 9.4c-.8.5-2.2-.1-3-1.3-.8-1.3-.8-2.7.1-3.2.8-.5 2.2.1 3 1.3s.8 2.6-.1 3.2zm3.9 2.4c-1.5 0-2.7-.8-2.7-1.8s1.2-1.8 2.7-1.8 2.7.8 2.7 1.8-1.2 1.8-2.7 1.8zm0-12.6c-1.5 0-2.7-.8-2.7-1.8s1.2-1.8 2.7-1.8 2.7.8 2.7 1.8-1.2 1.8-2.7 1.8zm4-1c.9-.5 2.2.1 3 1.4s.7 2.7-.2 3.2-2.2-.1-2.9-1.4c-.8-1.3-.7-2.7.1-3.2zm3.1 9.4c-.7 1.3-2 2-2.9 1.5s-1-1.9-.3-3.2 2-2 2.9-1.5 1 1.9.3 3.2z" fill="#e6007a"/></svg>